<svg width="142" height="40" viewBox="0 0 142 40" fill="none" xmlns="http://www.w3.org/2000/svg">
<rect x="0.5" y="0.5" width="141" height="39" rx="4.5" fill="white" stroke="#E9EBED"/>
<path d="M31.7072 19.729C31.6767 16.3439 34.4846 14.6971 34.613 14.6204C33.0228 12.3066 30.558 11.9905 29.6919 11.9653C27.6218 11.7479 25.6137 13.2015 24.5592 13.2015C23.4836 13.2015 21.8598 11.9863 20.1096 12.022C17.8574 12.0566 15.7505 13.358 14.5949 15.3787C12.2101 19.499 13.9887 25.5539 16.2735 28.8844C17.4164 30.5165 18.752 32.3367 20.5 32.2726C22.2102 32.2033 22.849 31.1856 24.9128 31.1856C26.9577 31.1856 27.5576 32.2726 29.3404 32.2316C31.1758 32.2033 32.3313 30.5932 33.4343 28.9474C34.7551 27.0789 35.2855 25.2367 35.3065 25.1422C35.2644 25.1275 31.743 23.7852 31.7072 19.729ZM28.3395 9.77437C29.2593 8.6264 29.8887 7.06462 29.714 5.47974C28.3827 5.53855 26.7177 6.39874 25.759 7.5215C24.9107 8.51087 24.153 10.1325 24.3487 11.6575C25.8442 11.7689 27.3797 10.9045 28.3395 9.77437Z" fill="black"/>
<path d="M56.4782 31.942H54.0882L52.779 27.8364H48.2283L46.9812 31.942H44.6543L49.1639 17.9647H51.9486L56.4782 31.942ZM52.3843 26.1139L51.2003 22.4641C51.0751 22.0913 50.8394 21.2133 50.4942 19.8311H50.4521C50.3132 20.4255 50.0911 21.3036 49.7869 22.4641L48.623 26.1139H52.3843ZM68.0527 26.7787C68.0527 28.4928 67.5865 29.8477 66.653 30.8423C65.8174 31.7277 64.7787 32.1699 63.54 32.1699C62.2023 32.1699 61.2404 31.6941 60.6563 30.7404V36.0286H58.4126V25.176C58.4126 24.0994 58.3842 22.9956 58.3294 21.8634H60.3027L60.428 23.4609H60.4701C61.2183 22.2572 62.3539 21.6554 63.8778 21.6554C65.0691 21.6554 66.0637 22.1249 66.8593 23.0649C67.6539 24.007 68.0527 25.2443 68.0527 26.7787ZM65.7669 26.8607C65.7669 25.8797 65.5459 25.071 65.1018 24.4334C64.6166 23.7707 63.9651 23.4388 63.1485 23.4388C62.5949 23.4388 62.0918 23.6237 61.6425 23.9881C61.192 24.3557 60.8973 24.8357 60.7595 25.4302C60.6979 25.6525 60.663 25.8813 60.6553 26.1118V27.7933C60.6553 28.5254 60.8805 29.144 61.3309 29.6502C61.7814 30.1544 62.3665 30.4075 63.0864 30.4075C63.9315 30.4075 64.5892 30.0808 65.0597 29.4328C65.5311 28.7827 65.7669 27.9256 65.7669 26.8607ZM79.6683 26.7787C79.6683 28.4928 79.2021 29.8477 78.2686 30.8423C77.4319 31.7277 76.3942 32.1699 75.1545 32.1699C73.8168 32.1699 72.8549 31.6941 72.2708 30.7404V36.0286H70.0271V25.176C70.0271 24.0994 69.9987 22.9956 69.9439 21.8634H71.9172L72.0425 23.4609H72.0846C72.8318 22.2572 73.9673 21.6554 75.4923 21.6554C76.6826 21.6554 77.6771 22.1249 78.4749 23.0649C79.2684 24.007 79.6683 25.2443 79.6683 26.7787ZM77.3814 26.8607C77.3814 25.8797 77.1593 25.071 76.7152 24.4334C76.23 23.7707 75.5807 23.4388 74.764 23.4388C74.2105 23.4388 73.7074 23.6237 73.2559 23.9881C72.8055 24.3557 72.5118 24.8357 72.374 25.4302C72.3056 25.7074 72.2687 25.9332 72.2687 26.1118V27.7933C72.2687 28.5254 72.495 29.144 72.9433 29.6502C73.3938 30.1533 73.9789 30.4075 74.7009 30.4075C75.547 30.4075 76.2048 30.0808 76.6742 29.4328C77.1457 28.7827 77.3814 27.9256 77.3814 26.8607ZM92.6552 28.0212C92.6552 29.2112 92.2384 30.1785 91.4101 30.9253C90.4988 31.7403 89.2264 32.1489 87.5951 32.1489C86.0881 32.1489 84.8799 31.859 83.9685 31.2782L84.4873 29.4118C85.4713 29.9937 86.5522 30.2835 87.7288 30.2835C88.5749 30.2835 89.2327 30.0924 89.7021 29.7132C90.1725 29.333 90.4103 28.8247 90.4103 28.1903C90.4103 27.6221 90.2135 27.1463 89.8273 26.7588C89.439 26.3723 88.797 26.012 87.8951 25.6812C85.4429 24.7685 84.2158 23.4336 84.2158 21.6775C84.2158 20.5306 84.6494 19.5916 85.5145 18.8575C86.3796 18.1244 87.5267 17.7578 88.9538 17.7578C90.2283 17.7578 91.2902 17.9794 92.1332 18.4216L91.5701 20.247C90.7766 19.8185 89.881 19.6042 88.8791 19.6042C88.0877 19.6042 87.4667 19.7985 87.0226 20.185C86.649 20.5306 86.4596 20.9517 86.4596 21.4517C86.4596 22.0031 86.6753 22.461 87.1047 22.8202C87.4772 23.151 88.1571 23.5113 89.1401 23.8978C90.3461 24.383 91.2323 24.9481 91.7995 25.5972C92.371 26.2462 92.6552 27.056 92.6552 28.0212ZM100.093 23.5438H97.6194V28.4371C97.6194 29.6817 98.0551 30.3025 98.9286 30.3025C99.3296 30.3025 99.6622 30.2688 99.9253 30.1985L99.9874 31.8989C99.5454 32.0638 98.9634 32.1468 98.2425 32.1468C97.3563 32.1468 96.6638 31.8768 96.1639 31.337C95.6661 30.7971 95.4157 29.8928 95.4157 28.6199V23.5396H93.9423V21.8592H95.4157V20.0138L97.6194 19.35V21.8592H100.093V23.5438ZM111.229 26.8197C111.229 28.3689 110.785 29.6408 109.899 30.6354C108.972 31.6594 107.738 32.1699 106.201 32.1699C104.717 32.1699 103.537 31.6794 102.657 30.6995C101.778 29.7174 101.338 28.4802 101.338 26.9877C101.338 25.426 101.792 24.1467 102.698 23.1521C103.607 22.1564 104.83 21.6586 106.367 21.6586C107.849 21.6586 109.039 22.1501 109.94 23.1311C110.801 24.0826 111.229 25.3115 111.229 26.8197ZM108.903 26.8712C108.903 25.948 108.703 25.156 108.303 24.4933C107.832 23.693 107.159 23.2928 106.286 23.2928C105.387 23.2928 104.698 23.693 104.229 24.4933C103.827 25.156 103.627 25.9616 103.627 26.9132C103.627 27.8374 103.827 28.6314 104.229 29.2921C104.714 30.0924 105.39 30.4926 106.267 30.4926C107.125 30.4926 107.797 30.084 108.284 29.2721C108.696 28.5936 108.903 27.7965 108.903 26.8712ZM118.526 23.8327C118.292 23.7906 118.056 23.7699 117.819 23.7707C117.029 23.7707 116.419 24.0669 115.989 24.6635C115.617 25.1886 115.43 25.8524 115.43 26.6537V31.942H113.186V25.0374C113.188 23.9794 113.166 22.9215 113.121 21.8644H115.075L115.157 23.7928H115.219C115.457 23.13 115.829 22.5954 116.341 22.1953C116.809 21.8456 117.378 21.6563 117.963 21.6554C118.17 21.6554 118.357 21.6701 118.524 21.6964L118.526 23.8327ZM128.561 26.4258C128.566 26.7662 128.539 27.1064 128.478 27.4415H121.747C121.772 28.4371 122.099 29.1996 122.724 29.7248C123.291 30.1932 124.025 30.4285 124.926 30.4285C125.922 30.4285 126.831 30.2709 127.649 29.9527L128.001 31.5061C127.045 31.922 125.917 32.1289 124.615 32.1289C123.049 32.1289 121.82 31.6689 120.925 30.7509C120.033 29.8319 119.586 28.5968 119.586 27.0497C119.586 25.531 120.001 24.2654 120.834 23.2561C121.705 22.1785 122.883 21.6397 124.365 21.6397C125.82 21.6397 126.922 22.1785 127.67 23.2561C128.263 24.1099 128.561 25.1686 128.561 26.4258ZM126.421 25.845C126.437 25.1802 126.289 24.6078 125.985 24.1236C125.597 23.4997 124.999 23.1888 124.198 23.1888C123.465 23.1888 122.867 23.4924 122.412 24.1015C122.039 24.5857 121.817 25.1676 121.748 25.8429L126.421 25.845Z" fill="black"/>
<path d="M47.9292 10.1292H48.8037C49.687 10.1292 50.1924 10.5334 50.1924 11.1794C50.1924 11.8167 49.6562 12.2693 48.8345 12.2693C48.0127 12.2693 47.4546 11.865 47.3975 11.2454H46.4526C46.5098 12.3616 47.4546 13.1042 48.8345 13.1042C50.1748 13.1042 51.2031 12.3 51.2031 11.2278C51.2031 10.3357 50.6143 9.7688 49.7925 9.6853V9.6106C50.5 9.448 50.9834 8.85474 50.9834 8.1604C50.9834 7.15845 50.1045 6.45532 48.8564 6.45532C47.5337 6.45532 46.6812 7.15845 46.6152 8.29224H47.5469C47.604 7.65942 48.0874 7.2771 48.8257 7.2771C49.5728 7.2771 50.0122 7.66821 50.0122 8.26587C50.0122 8.87671 49.5288 9.30737 48.7773 9.30737H47.9292V10.1292Z" fill="black"/>
<path d="M53.9188 13.0295C54.5472 13.0295 55.0701 12.7571 55.3558 12.2737H55.4305V12.9504H56.3402V9.6853C56.3402 8.68335 55.6634 8.08569 54.4637 8.08569C53.3782 8.08569 52.6048 8.60864 52.5081 9.41284H53.4222C53.5277 9.06567 53.8924 8.86792 54.4197 8.86792C55.0657 8.86792 55.3997 9.16235 55.3997 9.6853V10.1028L54.1033 10.1819C52.9652 10.2522 52.3236 10.7488 52.3236 11.6057C52.3236 12.4758 52.9959 13.0295 53.9188 13.0295ZM54.1605 12.2693C53.6463 12.2693 53.2728 12.01 53.2728 11.5662C53.2728 11.1311 53.5716 10.8982 54.2308 10.8542L55.3997 10.7751V11.1882C55.3997 11.8035 54.8724 12.2693 54.1605 12.2693Z" fill="black"/>
<path d="M61.0993 8.93384V8.17798H57.9484V12.9504H58.8932V8.93384H61.0993Z" fill="black"/>
<path d="M64.8872 8.09448C64.2368 8.09448 63.6743 8.42407 63.3842 8.96899H63.3139V8.17798H62.4043V14.5413H63.3491V12.2297H63.4238C63.6743 12.7351 64.2148 13.0295 64.896 13.0295C66.1045 13.0295 66.8735 12.0715 66.8735 10.5642C66.8735 9.0481 66.1045 8.09448 64.8872 8.09448ZM64.6191 12.2209C63.8281 12.2209 63.3315 11.5837 63.3315 10.5642C63.3315 9.54028 63.8281 8.90308 64.6235 8.90308C65.4233 8.90308 65.9023 9.5271 65.9023 10.5642C65.9023 11.6013 65.4233 12.2209 64.6191 12.2209Z" fill="black"/>
<path d="M68.5696 14.6819C69.5452 14.6819 69.9978 14.3171 70.4065 13.1702L72.1907 8.17798H71.1887L69.9934 12.0012H69.9187L68.719 8.17798H67.6907L69.4221 12.9636L69.3518 13.2097C69.1892 13.7151 68.9344 13.9041 68.4861 13.9041C68.3982 13.9041 68.2532 13.8997 68.1785 13.8865V14.6599C68.2664 14.6731 68.4905 14.6819 68.5696 14.6819Z" fill="black"/>
<path d="M74.9591 13.0383C76.1368 13.0383 76.9103 12.4275 76.9103 11.5398C76.9103 11.0037 76.5851 10.6213 75.9347 10.4895V10.4148C76.4356 10.3005 76.7477 9.89185 76.7477 9.39526C76.7477 8.60425 76.0885 8.08569 74.9854 8.08569C73.8824 8.08569 73.2013 8.63062 73.1002 9.45239H74.0143C74.0714 9.08325 74.4361 8.84595 74.9635 8.84595C75.5392 8.84595 75.8204 9.1228 75.8204 9.49194C75.8204 9.93579 75.526 10.1687 74.9459 10.1687H74.2384V10.863H74.9503C75.6139 10.863 75.9698 11.0828 75.9698 11.553C75.9698 11.9836 75.5919 12.2781 74.9503 12.2781C74.3922 12.2781 74.0055 12.054 73.9132 11.6541H72.9728C73.0606 12.5374 73.8824 13.0383 74.9591 13.0383Z" fill="black"/>
<path d="M79.2568 12.9504L81.4408 9.58862H81.5155V12.9504H82.4516V8.17798H81.5155L79.3315 11.5266H79.2568V8.17798H78.3207V12.9504H79.2568Z" fill="black"/>
<path d="M87.6589 8.17798H83.6995V8.93384H85.2068V12.9504H86.1516V8.93384H87.6589V8.17798Z" fill="black"/>
<path d="M88.9024 12.9504H90.792C91.8995 12.9504 92.607 12.3132 92.607 11.3025C92.607 10.2961 91.8995 9.65894 90.792 9.65894H89.8472V8.17798H88.9024V12.9504ZM90.7217 10.4104C91.293 10.4104 91.6666 10.762 91.6666 11.3025C91.6666 11.8386 91.2974 12.1946 90.7217 12.1946H89.8472V10.4104H90.7217Z" fill="black"/>
<path d="M98.7546 12.9504C99.8049 12.9504 100.433 12.4055 100.433 11.5837C100.433 11.0125 100.029 10.5818 99.4094 10.5071V10.4324C99.8796 10.3445 100.218 9.90063 100.218 9.40845C100.218 8.66138 99.6687 8.17798 98.7326 8.17798H96.5749V12.9504H98.7546ZM97.5109 8.87671H98.5524C99.0534 8.87671 99.2907 9.13599 99.2907 9.52271C99.2907 9.94897 99.0183 10.1775 98.447 10.1775H97.5109V8.87671ZM97.5109 10.863H98.5217C99.1545 10.863 99.4797 11.0872 99.4797 11.5486C99.4797 11.9924 99.1896 12.2473 98.6403 12.2473H97.5109V10.863Z" fill="black"/>
</svg>
